<?xml version="1.0" encoding="UTF-8"?>
<svg width="198px" height="198px" viewBox="0 0 198 198" version="1.1" xmlns="http://www.w3.org/2000/svg" xmlns:xlink="http://www.w3.org/1999/xlink">
    <!-- Generator: Sketch 44.1 (41455) - http://www.bohemiancoding.com/sketch -->
    <title>Group 13</title>
    <desc>Created with Sketch.</desc>
    <defs></defs>
    <g id="iteration-7" stroke="none" stroke-width="1" fill="none" fill-rule="evenodd">
        <g id="Group-13" transform="translate(1.000000, 1.000000)" stroke="#5DB797" stroke-width="2">
            <circle id="Oval-3" opacity="0.100000001" transform="translate(98.000000, 98.000000) rotate(-360.000000) translate(-98.000000, -98.000000) " cx="98" cy="98" r="98"></circle>
            <path d="M134.2202,102.361403 L83.4450288,130.826272 L83.4450288,130.826272 C81.0362926,132.176624 77.9889494,131.318634 76.6385972,128.909898 C76.2198886,128.163012 76,127.321114 76,126.464869 L76,69.535131 L76,69.535131 C76,66.7737073 78.2385763,64.535131 81,64.535131 C81.8562448,64.535131 82.6981432,64.7550196 83.4450288,65.1737283 L134.2202,93.6385972 L134.2202,93.6385972 C136.628937,94.9889494 137.486927,98.0362926 136.136574,100.445029 C135.686389,101.248063 135.023235,101.911217 134.2202,102.361403 Z" id="Triangle"></path>
        </g>
    </g>
</svg>