<?xml version="1.0" encoding="utf-8"?>
<!-- Generator: Adobe Illustrator 19.1.0, SVG Export Plug-In . SVG Version: 6.00 Build 0)  -->
<svg version="1.1" xmlns="http://www.w3.org/2000/svg" xmlns:xlink="http://www.w3.org/1999/xlink" x="0px" y="0px"
	 viewBox="0 0 128 127.5" style="enable-background:new 0 0 128 127.5;" xml:space="preserve">
<style type="text/css">
	.st0{fill:none;stroke:#AFAFAF;stroke-width:3;stroke-miterlimit:10;}
	.st1{fill:url(#SVGID_1_);}
	.st2{fill:url(#SVGID_2_);}
	.st3{fill:url(#SVGID_3_);}
	.st4{fill:url(#SVGID_4_);}
	.st5{fill:url(#SVGID_5_);}
	.st6{fill:url(#SVGID_6_);}
	.st7{fill:url(#SVGID_7_);}
	.st8{fill:url(#SVGID_8_);}
	.st9{fill:url(#SVGID_9_);}
	.st10{display:none;}
</style>
<g id="Слой_1">
	<path class="st0" d="M-373.5,217.2c0,29.6-24,53.7-53.7,53.7s-53.7-24-53.7-53.7c0-29.6,24-53.7,53.7-53.7
		c23.4,0,38.9,16.6,40.3,18.3C-384.4,184.6-373.5,198.2-373.5,217.2z"/>
	<circle class="st0" cx="-267.8" cy="217.2" r="53.7"/>
	<circle class="st0" cx="-596.1" cy="-158.4" r="53.7"/>
	<circle class="st0" cx="-566.6" cy="346.5" r="53.7"/>
	<circle class="st0" cx="-570.6" cy="216" r="53.7"/>
	<circle class="st0" cx="-267.8" cy="73.8" r="53.7"/>
	<circle class="st0" cx="-427.2" cy="73.8" r="53.7"/>
	<circle class="st0" cx="64" cy="64.5" r="53.7"/>
	<circle class="st0" cx="-570.6" cy="73.8" r="53.7"/>
	<circle class="st0" cx="64.6" cy="64.5" r="53.7"/>
</g>
<g id="Слой_1_копия_2">
	<g>
		<g>
			<linearGradient id="SVGID_1_" gradientUnits="userSpaceOnUse" x1="-650.1047" y1="-158.3924" x2="-542.1014" y2="-158.3924">
				<stop  offset="0" style="stop-color:#53B19F"/>
				<stop  offset="0.1391" style="stop-color:#3DAAAD"/>
				<stop  offset="0.3445" style="stop-color:#22A1BD"/>
				<stop  offset="0.5546" style="stop-color:#0F9BC9"/>
				<stop  offset="0.7702" style="stop-color:#0497D0"/>
				<stop  offset="1" style="stop-color:#0096D2"/>
			</linearGradient>
			<path class="st1" d="M-546.5-158.4c-0.3,20.8-13.3,40.1-33.2,46.9c-19.5,6.7-41.4,0.7-54.6-15.1c-13.4-16-15.1-39.5-4.3-57.4
				c10.7-17.8,32.1-27.3,52.4-23C-563.1-202.2-546.8-181.8-546.5-158.4c0.1,5.2,8.1,5.2,8,0c-0.3-24.1-15.2-45.8-37.9-54.2
				c-22.5-8.4-48.8-1.2-64.1,17.3c-15.5,18.7-17.7,45.8-5.2,66.6c12.4,20.6,36.6,31.3,60.2,27c27.2-4.9,46.6-29.4,47-56.7
				C-538.3-163.5-546.4-163.6-546.5-158.4z"/>
		</g>
	</g>
	<g>
		<g>
			<g>
				<linearGradient id="SVGID_2_" gradientUnits="userSpaceOnUse" x1="-624.5706" y1="73.9317" x2="-516.5672" y2="73.9317">
					<stop  offset="0" style="stop-color:#53B19F"/>
					<stop  offset="0.1391" style="stop-color:#3DAAAD"/>
					<stop  offset="0.3445" style="stop-color:#22A1BD"/>
					<stop  offset="0.5546" style="stop-color:#0F9BC9"/>
					<stop  offset="0.7702" style="stop-color:#0497D0"/>
					<stop  offset="1" style="stop-color:#0096D2"/>
				</linearGradient>
				<path class="st2" d="M-620.5,45c-10.9,19.5-10.2,44.1,3,62.4c11.8,16.3,31.6,25.8,51.8,24c19.9-1.8,38-13.8,46.8-31.8
					c9-18.3,7.8-40.6-3.6-57.5c-13.6-20.2-38-29.4-61.6-24.2c-5,1.1-2.9,8.9,2.1,7.8c18.1-4,37.1,1.9,49.2,16.1
					c11.4,13.3,14.8,32.1,9.1,48.6c-5.5,15.9-19.3,28.1-35.6,32c-17.3,4-35.7-1.7-47.7-14.7c-14.8-15.9-17-39.7-6.5-58.5
					C-611,44.5-618,40.4-620.5,45L-620.5,45z"/>
			</g>
		</g>
	</g>
	<g>
		<g>
			<linearGradient id="SVGID_3_" gradientUnits="userSpaceOnUse" x1="-481.1892" y1="74.0314" x2="-373.1859" y2="74.0314">
				<stop  offset="0" style="stop-color:#53B19F"/>
				<stop  offset="0.1391" style="stop-color:#3DAAAD"/>
				<stop  offset="0.3445" style="stop-color:#22A1BD"/>
				<stop  offset="0.5546" style="stop-color:#0F9BC9"/>
				<stop  offset="0.7702" style="stop-color:#0497D0"/>
				<stop  offset="1" style="stop-color:#0096D2"/>
			</linearGradient>
			<path class="st3" d="M-479.6,49.9c-8.2,19.1-6.5,41.1,5.9,58c11.1,15.1,29.2,24.1,48,23.6c39.3-1.1,66.9-42.1,52.3-78.8
				c-7.9-20-26.1-33.3-47.2-36.1c-5.1-0.7-5.1,7.4,0,8c33.4,4.5,53.3,41.9,37.7,72c-15.4,29.6-56.3,35.8-79.7,11.9
				c-14-14.4-17.9-36.1-9.9-54.5C-470.7,49.2-477.6,45.1-479.6,49.9L-479.6,49.9z"/>
		</g>
	</g>
	<text transform="matrix(1 0 0 1 -576 80)" style="font-family:'MyriadPro-Regular'; font-size:12px;">9</text>
	<text transform="matrix(1 0 0 1 -430.6665 82)" style="font-family:'MyriadPro-Regular'; font-size:12px;">85</text>
	<g>
		<g>
			<linearGradient id="SVGID_4_" gradientUnits="userSpaceOnUse" x1="-321.7997" y1="74.6495" x2="-213.7964" y2="74.6495">
				<stop  offset="0" style="stop-color:#53B19F"/>
				<stop  offset="0.1391" style="stop-color:#3DAAAD"/>
				<stop  offset="0.3445" style="stop-color:#22A1BD"/>
				<stop  offset="0.5546" style="stop-color:#0F9BC9"/>
				<stop  offset="0.7702" style="stop-color:#0497D0"/>
				<stop  offset="1" style="stop-color:#0096D2"/>
			</linearGradient>
			<path class="st4" d="M-322.4,55.2c-12.2,35.8,14,74.4,51.8,76.3c38.2,1.9,69.6-36,58.2-73.2c-5.8-19-22-34.9-41.1-40.3
				c-5-1.4-7.1,6.3-2.1,7.8c14.4,4.1,26.7,15,33.1,28.4c7.2,15.1,5.4,33.2-3.7,47c-18,27.5-58.7,29.5-79.7,4.4
				c-11.2-13.4-14.2-31.9-8.6-48.3C-312.9,52.4-320.7,50.3-322.4,55.2L-322.4,55.2z"/>
		</g>
	</g>
	<text transform="matrix(1 0 0 1 -275 85)" style="font-family:'MyriadPro-Regular'; font-size:12px;">80</text>
	<g>
		<g>
			<linearGradient id="SVGID_5_" gradientUnits="userSpaceOnUse" x1="-624.5558" y1="216.5511" x2="-516.5408" y2="216.5511">
				<stop  offset="0" style="stop-color:#53B19F"/>
				<stop  offset="0.1391" style="stop-color:#3DAAAD"/>
				<stop  offset="0.3445" style="stop-color:#22A1BD"/>
				<stop  offset="0.5546" style="stop-color:#0F9BC9"/>
				<stop  offset="0.7702" style="stop-color:#0497D0"/>
				<stop  offset="1" style="stop-color:#0096D2"/>
			</linearGradient>
			<path class="st5" d="M-628.2,215.5c0.2,36,33.3,63.9,68.9,57c34.2-6.6,55.2-44.2,42.7-76.8c-6.9-18.1-22.3-31.5-41.2-36
				c-5-1.2-7.2,6.6-2.1,7.8c29.8,7.1,47.2,39.5,34.9,68.1c-12,28-47.4,38.5-72.8,22c-14.2-9.2-22.4-25.2-22.4-42
				C-620.2,210.3-628.3,210.3-628.2,215.5L-628.2,215.5z"/>
		</g>
	</g>
	<g>
		<g>
			<linearGradient id="SVGID_6_" gradientUnits="userSpaceOnUse" x1="10.5669" y1="65.4541" x2="118.582" y2="65.4541">
				<stop  offset="0" style="stop-color:#53B19F"/>
				<stop  offset="0.1391" style="stop-color:#3DAAAD"/>
				<stop  offset="0.3445" style="stop-color:#22A1BD"/>
				<stop  offset="0.5546" style="stop-color:#0F9BC9"/>
				<stop  offset="0.7702" style="stop-color:#0497D0"/>
				<stop  offset="1" style="stop-color:#0096D2"/>
			</linearGradient>
			<path class="st6" d="M6.9,64.4c0.2,36,33.3,63.9,68.9,57c34.2-6.6,55.2-44.2,42.7-76.8c-6.9-18.1-22.3-31.5-41.2-36
				c-5-1.2-7.2,6.6-2.1,7.8c29.8,7.1,47.2,39.5,34.9,68.1c-12,28-47.4,38.5-72.8,22c-14.2-9.2-22.4-25.2-22.4-42
				C14.9,59.2,6.9,59.2,6.9,64.4L6.9,64.4z"/>
		</g>
	</g>
	<text transform="matrix(1 0 0 1 -579.3335 222.667)" style="font-family:'MyriadPro-Regular'; font-size:12px;">75</text>
	<g>
		<g>
			<linearGradient id="SVGID_7_" gradientUnits="userSpaceOnUse" x1="-319.1441" y1="236.5059" x2="-214.5359" y2="236.5059">
				<stop  offset="0" style="stop-color:#53B19F"/>
				<stop  offset="0.1391" style="stop-color:#3DAAAD"/>
				<stop  offset="0.3445" style="stop-color:#22A1BD"/>
				<stop  offset="0.5546" style="stop-color:#0F9BC9"/>
				<stop  offset="0.7702" style="stop-color:#0497D0"/>
				<stop  offset="1" style="stop-color:#0096D2"/>
			</linearGradient>
			<path class="st7" d="M-322.7,235.8c8.3,21.4,28,36.5,51.1,37.8c23.1,1.3,45.5-12.1,55.2-33.1c5.6-12.1,6.7-25.2,3.9-38.2
				c-1.1-5-8.9-2.9-7.8,2.1c5.6,25-8.5,51.1-33.4,58.8c-24.9,7.7-51.9-5.4-61.3-29.6C-316.8,228.8-324.6,230.9-322.7,235.8
				L-322.7,235.8z"/>
		</g>
	</g>
	<text transform="matrix(1 0 0 1 -268.667 215.333)" style="font-family:'MyriadPro-Regular'; font-size:12px;">55</text>
	<text transform="matrix(1 0 0 1 -432 223.333)" style="font-family:'MyriadPro-Regular'; font-size:12px;">65</text>
	<g>
		<g>
			<linearGradient id="SVGID_8_" gradientUnits="userSpaceOnUse" x1="-481.768" y1="234.6157" x2="-373.9459" y2="234.6157">
				<stop  offset="0" style="stop-color:#53B19F"/>
				<stop  offset="0.1391" style="stop-color:#3DAAAD"/>
				<stop  offset="0.3445" style="stop-color:#22A1BD"/>
				<stop  offset="0.5546" style="stop-color:#0F9BC9"/>
				<stop  offset="0.7702" style="stop-color:#0497D0"/>
				<stop  offset="1" style="stop-color:#0096D2"/>
			</linearGradient>
			<path class="st8" d="M-485.5,219.8c2.5,25.6,21.1,47.6,46.9,52.3c24.9,4.5,50.7-7.9,62.1-30.7c6.6-13.1,7.8-28.1,3.8-42.2
				c-1.4-5-9.2-2.9-7.8,2.1c7.9,27.8-9.3,56.9-37.8,62.8c-28.8,5.9-56.4-15.3-59.3-44.3C-477.9,214.7-486,214.6-485.5,219.8
				L-485.5,219.8z"/>
		</g>
	</g>
	<g>
		<g>
			<linearGradient id="SVGID_9_" gradientUnits="userSpaceOnUse" x1="-614.9685" y1="384.3565" x2="-517.4013" y2="384.3565">
				<stop  offset="0" style="stop-color:#53B19F"/>
				<stop  offset="0.1391" style="stop-color:#3DAAAD"/>
				<stop  offset="0.3445" style="stop-color:#22A1BD"/>
				<stop  offset="0.5546" style="stop-color:#0F9BC9"/>
				<stop  offset="0.7702" style="stop-color:#0497D0"/>
				<stop  offset="1" style="stop-color:#0096D2"/>
			</linearGradient>
			<path class="st9" d="M-618.1,372.3c10,19.5,30.3,32.2,52.3,31.9c22.1-0.3,42.2-13.5,51.6-33.4c2.2-4.7-4.7-8.7-6.9-4.1
				c-8.2,17.4-25.2,29.2-44.6,29.5c-19.4,0.3-36.6-10.8-45.4-27.9C-613.6,363.6-620.5,367.7-618.1,372.3L-618.1,372.3z"/>
		</g>
	</g>
</g>
<g id="Слой_1__x28_копия_x29_" class="st10">
</g>
<g id="Слой_1__x28_копия2_x29_" class="st10">
</g>
<g id="Слой_2" class="st10">
</g>
</svg>
