<?xml version="1.0" encoding="utf-8"?>
<!-- Generator: Adobe Illustrator 19.1.1, SVG Export Plug-In . SVG Version: 6.00 Build 0)  -->
<svg version="1.1" xmlns="http://www.w3.org/2000/svg" xmlns:xlink="http://www.w3.org/1999/xlink" x="0px" y="0px"
	 viewBox="0 0 119.3 119.3" style="enable-background:new 0 0 119.3 119.3;" xml:space="preserve">
<style type="text/css">
	.st0{fill:none;stroke:#C2185B;stroke-width:3;stroke-miterlimit:10;}
	.st1{fill:none;stroke:#3EB5F1;stroke-width:5;stroke-miterlimit:10;}
	.st2{display:none;}
</style>
<g id="Слой_1">
	<circle class="st0" cx="-246.9" cy="184.5" r="53.7"/>
	<circle class="st0" cx="-542.4" cy="-35.9" r="53.7"/>
	<circle class="st0" cx="-375.9" cy="355" r="53.7"/>
	<circle class="st0" cx="60" cy="59.7" r="53.7"/>
	<circle class="st0" cx="-207.5" cy="33" r="53.7"/>
</g>
<g id="Слой_1_копия_2">
	<g>
		<path class="st1" d="M-300.3,179.5c-0.2,1.6-0.2,3.3-0.2,5c0,29.6,24,53.7,53.7,53.7s53.7-24,53.7-53.7c0-1.3,0-2.5-0.1-3.8
			c-0.1-1.4-0.2-2.7-0.4-4"/>
	</g>
	<circle class="st1" cx="-542.4" cy="-35.9" r="53.7"/>
	<g>
		<path class="st1" d="M-414,392.8c9.7,9.8,23.2,15.8,38,15.8c14.9,0,28.5-6.1,38.2-16c0.4-0.4,0.7-0.7,1.1-1.1"/>
	</g>
	<g>
		<path class="st1" d="M-214.7-16.3"/>
		<path class="st1" d="M-259.2,18.8c-1.2,4.5-1.9,9.3-1.9,14.2c0,29.6,24,53.7,53.7,53.7s53.7-24,53.7-53.7s-24-53.7-53.7-53.7
			c-0.3,0-0.6,0-0.9,0c-1.6,0-3.3,0.1-4.9,0.3"/>
	</g>
</g>
<g id="Слой_1__x28_копия_x29_" class="st2">
</g>
<g id="Слой_1__x28_копия2_x29_" class="st2">
</g>
<g id="Слой_2" class="st2">
</g>
</svg>
